<mxfile host="app.diagrams.net" agent="Mozilla/5.0 (Windows NT 10.0; Win64; x64) AppleWebKit/537.36 (KHTML, like Gecko) Chrome/120.0.0.0 Safari/537.36" version="24.7.6" pages="2">
  <diagram id="R2lEEEUBdFMjLlhIrx00" name="4A管理数据模型">
    <mxGraphModel dx="1182" dy="614" grid="1" gridSize="10" guides="1" tooltips="1" connect="1" arrows="1" fold="1" page="1" pageScale="1" pageWidth="850" pageHeight="1100" math="0" shadow="0" extFonts="Permanent Marker^https://fonts.googleapis.com/css?family=Permanent+Marker">
      <root>
        <mxCell id="0" />
        <mxCell id="1" parent="0" />
        <mxCell id="y7mrTgpkIZg8PlTDdpqD-15" value="人员" style="whiteSpace=wrap;html=1;align=center;" vertex="1" parent="1">
          <mxGeometry x="180" y="70" width="100" height="40" as="geometry" />
        </mxCell>
        <mxCell id="y7mrTgpkIZg8PlTDdpqD-16" value="账号" style="whiteSpace=wrap;html=1;align=center;" vertex="1" parent="1">
          <mxGeometry x="340" y="170" width="100" height="40" as="geometry" />
        </mxCell>
        <mxCell id="y7mrTgpkIZg8PlTDdpqD-17" value="角色" style="whiteSpace=wrap;html=1;align=center;" vertex="1" parent="1">
          <mxGeometry x="500" y="270" width="100" height="40" as="geometry" />
        </mxCell>
        <mxCell id="y7mrTgpkIZg8PlTDdpqD-18" value="组织" style="whiteSpace=wrap;html=1;align=center;" vertex="1" parent="1">
          <mxGeometry x="180" y="270" width="100" height="40" as="geometry" />
        </mxCell>
        <mxCell id="y7mrTgpkIZg8PlTDdpqD-19" value="岗位" style="whiteSpace=wrap;html=1;align=center;" vertex="1" parent="1">
          <mxGeometry x="500" y="70" width="100" height="40" as="geometry" />
        </mxCell>
        <mxCell id="y7mrTgpkIZg8PlTDdpqD-20" value="菜单" style="whiteSpace=wrap;html=1;align=center;" vertex="1" parent="1">
          <mxGeometry x="660" y="180" width="100" height="40" as="geometry" />
        </mxCell>
        <mxCell id="y7mrTgpkIZg8PlTDdpqD-31" value="" style="edgeStyle=entityRelationEdgeStyle;fontSize=12;html=1;endArrow=ERoneToMany;startArrow=ERmandOne;rounded=0;exitX=1;exitY=0.5;exitDx=0;exitDy=0;" edge="1" parent="1" source="y7mrTgpkIZg8PlTDdpqD-15" target="y7mrTgpkIZg8PlTDdpqD-16">
          <mxGeometry width="100" height="100" relative="1" as="geometry">
            <mxPoint x="180" y="380" as="sourcePoint" />
            <mxPoint x="280" y="280" as="targetPoint" />
          </mxGeometry>
        </mxCell>
        <mxCell id="y7mrTgpkIZg8PlTDdpqD-32" value="" style="edgeStyle=entityRelationEdgeStyle;fontSize=12;html=1;endArrow=ERmandOne;startArrow=ERmandOne;rounded=0;exitX=1;exitY=0.5;exitDx=0;exitDy=0;" edge="1" parent="1" source="y7mrTgpkIZg8PlTDdpqD-16" target="y7mrTgpkIZg8PlTDdpqD-19">
          <mxGeometry width="100" height="100" relative="1" as="geometry">
            <mxPoint x="370" y="360" as="sourcePoint" />
            <mxPoint x="470" y="260" as="targetPoint" />
          </mxGeometry>
        </mxCell>
        <mxCell id="y7mrTgpkIZg8PlTDdpqD-33" value="" style="edgeStyle=entityRelationEdgeStyle;fontSize=12;html=1;endArrow=ERoneToMany;startArrow=ERmandOne;rounded=0;exitX=1;exitY=0.75;exitDx=0;exitDy=0;entryX=0;entryY=0.5;entryDx=0;entryDy=0;" edge="1" parent="1" source="y7mrTgpkIZg8PlTDdpqD-16" target="y7mrTgpkIZg8PlTDdpqD-17">
          <mxGeometry width="100" height="100" relative="1" as="geometry">
            <mxPoint x="100" y="450" as="sourcePoint" />
            <mxPoint x="200" y="350" as="targetPoint" />
          </mxGeometry>
        </mxCell>
        <mxCell id="y7mrTgpkIZg8PlTDdpqD-34" value="" style="edgeStyle=entityRelationEdgeStyle;fontSize=12;html=1;endArrow=ERoneToMany;startArrow=ERmandOne;rounded=0;exitX=1;exitY=0.5;exitDx=0;exitDy=0;entryX=0;entryY=0.75;entryDx=0;entryDy=0;" edge="1" parent="1" source="y7mrTgpkIZg8PlTDdpqD-18" target="y7mrTgpkIZg8PlTDdpqD-16">
          <mxGeometry width="100" height="100" relative="1" as="geometry">
            <mxPoint x="210" y="370" as="sourcePoint" />
            <mxPoint x="310" y="270" as="targetPoint" />
          </mxGeometry>
        </mxCell>
        <mxCell id="y7mrTgpkIZg8PlTDdpqD-36" value="" style="edgeStyle=entityRelationEdgeStyle;fontSize=12;html=1;endArrow=ERoneToMany;startArrow=ERoneToMany;rounded=0;exitX=1;exitY=0.5;exitDx=0;exitDy=0;entryX=0;entryY=0.5;entryDx=0;entryDy=0;" edge="1" parent="1" source="y7mrTgpkIZg8PlTDdpqD-17" target="y7mrTgpkIZg8PlTDdpqD-20">
          <mxGeometry width="100" height="100" relative="1" as="geometry">
            <mxPoint x="490" y="520" as="sourcePoint" />
            <mxPoint x="590" y="420" as="targetPoint" />
          </mxGeometry>
        </mxCell>
      </root>
    </mxGraphModel>
  </diagram>
  <diagram id="Um4AFvTIRt3dBDO_l0_F" name="4A">
    <mxGraphModel dx="1124" dy="384" grid="0" gridSize="10" guides="1" tooltips="1" connect="1" arrows="1" fold="1" page="0" pageScale="1" pageWidth="827" pageHeight="1169" background="#ffffff" math="0" shadow="0">
      <root>
        <mxCell id="0" />
        <mxCell id="1" parent="0" />
        <mxCell id="kxCucHEOc0CbrLCYkEG3-6" value="" style="edgeStyle=orthogonalEdgeStyle;rounded=0;orthogonalLoop=1;jettySize=auto;html=1;" edge="1" parent="1" source="kxCucHEOc0CbrLCYkEG3-2" target="kxCucHEOc0CbrLCYkEG3-5">
          <mxGeometry relative="1" as="geometry" />
        </mxCell>
        <mxCell id="kxCucHEOc0CbrLCYkEG3-2" value="用户" style="shape=umlActor;verticalLabelPosition=bottom;verticalAlign=top;html=1;outlineConnect=0;" vertex="1" parent="1">
          <mxGeometry x="-245" y="95" width="30" height="60" as="geometry" />
        </mxCell>
        <mxCell id="kxCucHEOc0CbrLCYkEG3-8" value="" style="edgeStyle=orthogonalEdgeStyle;rounded=0;orthogonalLoop=1;jettySize=auto;html=1;exitX=0.75;exitY=0;exitDx=0;exitDy=0;entryX=-0.002;entryY=0.159;entryDx=0;entryDy=0;entryPerimeter=0;" edge="1" parent="1" source="kxCucHEOc0CbrLCYkEG3-5" target="kxCucHEOc0CbrLCYkEG3-7">
          <mxGeometry relative="1" as="geometry" />
        </mxCell>
        <mxCell id="kxCucHEOc0CbrLCYkEG3-5" value="平台登录前端页面" style="whiteSpace=wrap;html=1;verticalAlign=middle;" vertex="1" parent="1">
          <mxGeometry x="-180" y="95" width="120" height="60" as="geometry" />
        </mxCell>
        <mxCell id="kxCucHEOc0CbrLCYkEG3-13" style="edgeStyle=orthogonalEdgeStyle;rounded=0;orthogonalLoop=1;jettySize=auto;html=1;entryX=0.5;entryY=0;entryDx=0;entryDy=0;exitX=1;exitY=0.5;exitDx=0;exitDy=0;" edge="1" parent="1" source="kxCucHEOc0CbrLCYkEG3-7" target="kxCucHEOc0CbrLCYkEG3-9">
          <mxGeometry relative="1" as="geometry" />
        </mxCell>
        <mxCell id="kxCucHEOc0CbrLCYkEG3-14" value="需要二次认证的情况下&lt;div&gt;发送短信&lt;/div&gt;" style="edgeLabel;html=1;align=center;verticalAlign=middle;resizable=0;points=[];" vertex="1" connectable="0" parent="kxCucHEOc0CbrLCYkEG3-13">
          <mxGeometry x="0.0782" relative="1" as="geometry">
            <mxPoint as="offset" />
          </mxGeometry>
        </mxCell>
        <mxCell id="kxCucHEOc0CbrLCYkEG3-7" value="平台后端服务" style="whiteSpace=wrap;html=1;verticalAlign=middle;" vertex="1" parent="1">
          <mxGeometry x="20" y="95" width="120" height="60" as="geometry" />
        </mxCell>
        <mxCell id="kxCucHEOc0CbrLCYkEG3-17" value="" style="edgeStyle=orthogonalEdgeStyle;rounded=0;orthogonalLoop=1;jettySize=auto;html=1;exitX=1;exitY=0.5;exitDx=0;exitDy=0;" edge="1" parent="1" source="kxCucHEOc0CbrLCYkEG3-9" target="kxCucHEOc0CbrLCYkEG3-16">
          <mxGeometry relative="1" as="geometry">
            <Array as="points">
              <mxPoint x="331" y="125" />
              <mxPoint x="331" y="249" />
            </Array>
          </mxGeometry>
        </mxCell>
        <mxCell id="kxCucHEOc0CbrLCYkEG3-9" value="短信后端服务" style="whiteSpace=wrap;html=1;" vertex="1" parent="1">
          <mxGeometry x="191" y="95" width="120" height="60" as="geometry" />
        </mxCell>
        <mxCell id="kxCucHEOc0CbrLCYkEG3-11" style="edgeStyle=orthogonalEdgeStyle;rounded=0;orthogonalLoop=1;jettySize=auto;html=1;entryX=0.75;entryY=0;entryDx=0;entryDy=0;exitX=0.177;exitY=-0.043;exitDx=0;exitDy=0;exitPerimeter=0;" edge="1" parent="1" source="kxCucHEOc0CbrLCYkEG3-7" target="kxCucHEOc0CbrLCYkEG3-7">
          <mxGeometry relative="1" as="geometry">
            <Array as="points">
              <mxPoint x="41" y="45" />
              <mxPoint x="110" y="45" />
            </Array>
          </mxGeometry>
        </mxCell>
        <mxCell id="kxCucHEOc0CbrLCYkEG3-12" value="校验账号密码" style="edgeLabel;html=1;align=center;verticalAlign=middle;resizable=0;points=[];" vertex="1" connectable="0" parent="kxCucHEOc0CbrLCYkEG3-11">
          <mxGeometry x="-0.0061" y="1" relative="1" as="geometry">
            <mxPoint x="13" y="-3" as="offset" />
          </mxGeometry>
        </mxCell>
        <mxCell id="kxCucHEOc0CbrLCYkEG3-18" style="edgeStyle=orthogonalEdgeStyle;rounded=0;orthogonalLoop=1;jettySize=auto;html=1;exitX=0.25;exitY=0;exitDx=0;exitDy=0;entryX=0.25;entryY=1;entryDx=0;entryDy=0;" edge="1" parent="1" source="kxCucHEOc0CbrLCYkEG3-16" target="kxCucHEOc0CbrLCYkEG3-9">
          <mxGeometry relative="1" as="geometry" />
        </mxCell>
        <mxCell id="kxCucHEOc0CbrLCYkEG3-19" style="edgeStyle=orthogonalEdgeStyle;rounded=0;orthogonalLoop=1;jettySize=auto;html=1;exitX=0;exitY=0.5;exitDx=0;exitDy=0;entryX=0.427;entryY=1.016;entryDx=0;entryDy=0;entryPerimeter=0;" edge="1" parent="1" source="kxCucHEOc0CbrLCYkEG3-16" target="kxCucHEOc0CbrLCYkEG3-21">
          <mxGeometry relative="1" as="geometry">
            <mxPoint x="-237.93100080818965" y="281.1034651131466" as="targetPoint" />
          </mxGeometry>
        </mxCell>
        <mxCell id="kxCucHEOc0CbrLCYkEG3-20" value="发送短信" style="edgeLabel;html=1;align=center;verticalAlign=middle;resizable=0;points=[];" vertex="1" connectable="0" parent="kxCucHEOc0CbrLCYkEG3-19">
          <mxGeometry x="-0.078" y="2" relative="1" as="geometry">
            <mxPoint as="offset" />
          </mxGeometry>
        </mxCell>
        <mxCell id="kxCucHEOc0CbrLCYkEG3-16" value="短信组件" style="whiteSpace=wrap;html=1;labelBackgroundColor=none;fillColor=#fff2cc;strokeColor=#d6b656;" vertex="1" parent="1">
          <mxGeometry x="31" y="221" width="120" height="60" as="geometry" />
        </mxCell>
        <mxCell id="kxCucHEOc0CbrLCYkEG3-21" value="" style="html=1;verticalLabelPosition=bottom;align=center;labelBackgroundColor=#ffffff;verticalAlign=top;strokeWidth=2;strokeColor=#0080F0;shadow=0;dashed=0;shape=mxgraph.ios7.icons.smartphone;" vertex="1" parent="1">
          <mxGeometry x="-263" y="120" width="18" height="30" as="geometry" />
        </mxCell>
      </root>
    </mxGraphModel>
  </diagram>
</mxfile>
